<mxfile host="app.diagrams.net" modified="2023-08-03T00:58:46.697Z" agent="Mozilla/5.0 (Windows NT 10.0; Win64; x64) AppleWebKit/537.36 (KHTML, like Gecko) Chrome/115.0.0.0 Safari/537.36" etag="br9NaAsfcOsYpAuYSkCL" version="21.6.6" type="device">
  <diagram name="PÃ¡gina-1" id="5fwc9ipzJS_efPtouH_Y">
    <mxGraphModel dx="989" dy="523" grid="1" gridSize="10" guides="0" tooltips="1" connect="1" arrows="1" fold="1" page="1" pageScale="1" pageWidth="1169" pageHeight="827" math="0" shadow="0">
      <root>
        <mxCell id="0" />
        <mxCell id="1" parent="0" />
        <mxCell id="Lzb46s-rd1kAjsw1pmxB-1" value="USER" style="rounded=0;whiteSpace=wrap;html=1;" vertex="1" parent="1">
          <mxGeometry x="320" y="340" width="90" height="40" as="geometry" />
        </mxCell>
        <mxCell id="Lzb46s-rd1kAjsw1pmxB-2" value="create" style="shape=rhombus;perimeter=rhombusPerimeter;whiteSpace=wrap;html=1;align=center;fillColor=none;gradientColor=none;rounded=0;" vertex="1" parent="1">
          <mxGeometry x="460" y="328" width="120" height="65" as="geometry" />
        </mxCell>
        <mxCell id="Lzb46s-rd1kAjsw1pmxB-3" value="" style="endArrow=none;html=1;rounded=0;entryX=0;entryY=0.5;entryDx=0;entryDy=0;" edge="1" parent="1" target="Lzb46s-rd1kAjsw1pmxB-2">
          <mxGeometry relative="1" as="geometry">
            <mxPoint x="410" y="360" as="sourcePoint" />
            <mxPoint x="570" y="360" as="targetPoint" />
          </mxGeometry>
        </mxCell>
        <mxCell id="Lzb46s-rd1kAjsw1pmxB-4" value="" style="endArrow=none;html=1;rounded=0;entryX=0;entryY=0.5;entryDx=0;entryDy=0;exitX=1;exitY=0.5;exitDx=0;exitDy=0;" edge="1" parent="1" source="Lzb46s-rd1kAjsw1pmxB-2" target="Lzb46s-rd1kAjsw1pmxB-5">
          <mxGeometry relative="1" as="geometry">
            <mxPoint x="610" y="360" as="sourcePoint" />
            <mxPoint x="640" y="360.5" as="targetPoint" />
          </mxGeometry>
        </mxCell>
        <mxCell id="Lzb46s-rd1kAjsw1pmxB-5" value="ROOM" style="rounded=0;whiteSpace=wrap;html=1;gradientColor=none;fillColor=none;" vertex="1" parent="1">
          <mxGeometry x="630" y="340.5" width="90" height="40" as="geometry" />
        </mxCell>
        <mxCell id="Lzb46s-rd1kAjsw1pmxB-6" value="" style="ellipse;whiteSpace=wrap;html=1;aspect=fixed;rounded=0;" vertex="1" parent="1">
          <mxGeometry x="750" y="390" width="10" height="10" as="geometry" />
        </mxCell>
        <mxCell id="Lzb46s-rd1kAjsw1pmxB-7" value="" style="ellipse;whiteSpace=wrap;html=1;aspect=fixed;rounded=0;" vertex="1" parent="1">
          <mxGeometry x="750" y="370" width="10" height="10" as="geometry" />
        </mxCell>
        <mxCell id="Lzb46s-rd1kAjsw1pmxB-8" value="" style="ellipse;whiteSpace=wrap;html=1;aspect=fixed;rounded=0;" vertex="1" parent="1">
          <mxGeometry x="750" y="350" width="10" height="10" as="geometry" />
        </mxCell>
        <mxCell id="Lzb46s-rd1kAjsw1pmxB-9" value="" style="ellipse;whiteSpace=wrap;html=1;aspect=fixed;rounded=0;fillColor=#000000;" vertex="1" parent="1">
          <mxGeometry x="750" y="330" width="10" height="10" as="geometry" />
        </mxCell>
        <mxCell id="Lzb46s-rd1kAjsw1pmxB-10" value="" style="ellipse;whiteSpace=wrap;html=1;aspect=fixed;rounded=0;" vertex="1" parent="1">
          <mxGeometry x="280" y="380" width="10" height="10" as="geometry" />
        </mxCell>
        <mxCell id="Lzb46s-rd1kAjsw1pmxB-11" value="" style="ellipse;whiteSpace=wrap;html=1;aspect=fixed;rounded=0;fillColor=#000000;" vertex="1" parent="1">
          <mxGeometry x="280" y="355.5" width="10" height="10" as="geometry" />
        </mxCell>
        <mxCell id="Lzb46s-rd1kAjsw1pmxB-12" value="" style="ellipse;whiteSpace=wrap;html=1;aspect=fixed;fillColor=#000000;rounded=0;" vertex="1" parent="1">
          <mxGeometry x="280" y="308" width="10" height="10" as="geometry" />
        </mxCell>
        <mxCell id="Lzb46s-rd1kAjsw1pmxB-13" value="" style="endArrow=none;html=1;rounded=0;exitX=1;exitY=0.25;exitDx=0;exitDy=0;entryX=0;entryY=0.5;entryDx=0;entryDy=0;" edge="1" parent="1" source="Lzb46s-rd1kAjsw1pmxB-5" target="Lzb46s-rd1kAjsw1pmxB-9">
          <mxGeometry width="50" height="50" relative="1" as="geometry">
            <mxPoint x="730" y="351" as="sourcePoint" />
            <mxPoint x="760" y="325" as="targetPoint" />
            <Array as="points">
              <mxPoint x="730" y="335" />
            </Array>
          </mxGeometry>
        </mxCell>
        <mxCell id="Lzb46s-rd1kAjsw1pmxB-14" value="" style="endArrow=none;html=1;rounded=0;exitX=1;exitY=0.5;exitDx=0;exitDy=0;entryX=0;entryY=0.5;entryDx=0;entryDy=0;" edge="1" parent="1" source="Lzb46s-rd1kAjsw1pmxB-5" target="Lzb46s-rd1kAjsw1pmxB-8">
          <mxGeometry width="50" height="50" relative="1" as="geometry">
            <mxPoint x="740" y="361" as="sourcePoint" />
            <mxPoint x="770" y="335" as="targetPoint" />
            <Array as="points">
              <mxPoint x="730" y="355" />
            </Array>
          </mxGeometry>
        </mxCell>
        <mxCell id="Lzb46s-rd1kAjsw1pmxB-15" value="" style="endArrow=none;html=1;rounded=0;exitX=1;exitY=0.75;exitDx=0;exitDy=0;entryX=0;entryY=0.5;entryDx=0;entryDy=0;" edge="1" parent="1" source="Lzb46s-rd1kAjsw1pmxB-5" target="Lzb46s-rd1kAjsw1pmxB-7">
          <mxGeometry width="50" height="50" relative="1" as="geometry">
            <mxPoint x="750" y="371" as="sourcePoint" />
            <mxPoint x="780" y="345" as="targetPoint" />
            <Array as="points">
              <mxPoint x="730" y="375" />
            </Array>
          </mxGeometry>
        </mxCell>
        <mxCell id="Lzb46s-rd1kAjsw1pmxB-16" value="" style="endArrow=none;html=1;rounded=0;exitX=1;exitY=1;exitDx=0;exitDy=0;entryX=0;entryY=0.5;entryDx=0;entryDy=0;" edge="1" parent="1" source="Lzb46s-rd1kAjsw1pmxB-5" target="Lzb46s-rd1kAjsw1pmxB-6">
          <mxGeometry width="50" height="50" relative="1" as="geometry">
            <mxPoint x="760" y="381" as="sourcePoint" />
            <mxPoint x="790" y="355" as="targetPoint" />
            <Array as="points">
              <mxPoint x="730" y="395" />
            </Array>
          </mxGeometry>
        </mxCell>
        <mxCell id="Lzb46s-rd1kAjsw1pmxB-17" value="" style="endArrow=none;html=1;rounded=0;exitX=0;exitY=0;exitDx=0;exitDy=0;entryX=1;entryY=0.5;entryDx=0;entryDy=0;" edge="1" parent="1" source="Lzb46s-rd1kAjsw1pmxB-1" target="Lzb46s-rd1kAjsw1pmxB-12">
          <mxGeometry width="50" height="50" relative="1" as="geometry">
            <mxPoint x="300" y="370" as="sourcePoint" />
            <mxPoint x="290" y="350" as="targetPoint" />
            <Array as="points">
              <mxPoint x="310" y="320" />
            </Array>
          </mxGeometry>
        </mxCell>
        <mxCell id="Lzb46s-rd1kAjsw1pmxB-18" value="" style="endArrow=none;html=1;rounded=0;entryX=1;entryY=0.5;entryDx=0;entryDy=0;exitX=0;exitY=0.5;exitDx=0;exitDy=0;" edge="1" parent="1" source="Lzb46s-rd1kAjsw1pmxB-1" target="Lzb46s-rd1kAjsw1pmxB-11">
          <mxGeometry width="50" height="50" relative="1" as="geometry">
            <mxPoint x="310" y="360" as="sourcePoint" />
            <mxPoint x="300" y="335" as="targetPoint" />
            <Array as="points" />
          </mxGeometry>
        </mxCell>
        <mxCell id="Lzb46s-rd1kAjsw1pmxB-19" value="" style="endArrow=none;html=1;rounded=0;entryX=1;entryY=0.5;entryDx=0;entryDy=0;exitX=0;exitY=0.75;exitDx=0;exitDy=0;" edge="1" parent="1" source="Lzb46s-rd1kAjsw1pmxB-1" target="Lzb46s-rd1kAjsw1pmxB-10">
          <mxGeometry width="50" height="50" relative="1" as="geometry">
            <mxPoint x="350" y="370" as="sourcePoint" />
            <mxPoint x="320" y="355" as="targetPoint" />
            <Array as="points">
              <mxPoint x="310" y="385" />
            </Array>
          </mxGeometry>
        </mxCell>
        <mxCell id="Lzb46s-rd1kAjsw1pmxB-20" value="id" style="text;html=1;strokeColor=none;fillColor=none;align=center;verticalAlign=middle;whiteSpace=wrap;rounded=0;" vertex="1" parent="1">
          <mxGeometry x="750" y="330" width="40" height="10" as="geometry" />
        </mxCell>
        <mxCell id="Lzb46s-rd1kAjsw1pmxB-21" value="name" style="text;html=1;strokeColor=none;fillColor=none;align=center;verticalAlign=middle;whiteSpace=wrap;rounded=0;" vertex="1" parent="1">
          <mxGeometry x="760" y="350" width="40" height="10" as="geometry" />
        </mxCell>
        <mxCell id="Lzb46s-rd1kAjsw1pmxB-22" value="is_private" style="text;html=1;strokeColor=none;fillColor=none;align=center;verticalAlign=middle;whiteSpace=wrap;rounded=0;" vertex="1" parent="1">
          <mxGeometry x="770" y="370" width="40" height="10" as="geometry" />
        </mxCell>
        <mxCell id="Lzb46s-rd1kAjsw1pmxB-23" value="description" style="text;html=1;strokeColor=none;fillColor=none;align=center;verticalAlign=middle;whiteSpace=wrap;rounded=0;" vertex="1" parent="1">
          <mxGeometry x="770" y="390" width="50" height="10" as="geometry" />
        </mxCell>
        <mxCell id="Lzb46s-rd1kAjsw1pmxB-24" value="id" style="text;html=1;strokeColor=none;fillColor=none;align=center;verticalAlign=middle;whiteSpace=wrap;rounded=0;" vertex="1" parent="1">
          <mxGeometry x="250" y="308" width="40" height="10" as="geometry" />
        </mxCell>
        <mxCell id="Lzb46s-rd1kAjsw1pmxB-25" value="name" style="text;html=1;strokeColor=none;fillColor=none;align=center;verticalAlign=middle;whiteSpace=wrap;rounded=0;" vertex="1" parent="1">
          <mxGeometry x="240" y="330" width="40" height="10" as="geometry" />
        </mxCell>
        <mxCell id="Lzb46s-rd1kAjsw1pmxB-26" value="password" style="text;html=1;strokeColor=none;fillColor=none;align=center;verticalAlign=middle;whiteSpace=wrap;rounded=0;" vertex="1" parent="1">
          <mxGeometry x="230" y="380.5" width="40" height="10" as="geometry" />
        </mxCell>
        <mxCell id="Lzb46s-rd1kAjsw1pmxB-27" value="(0,n)" style="text;html=1;align=center;verticalAlign=middle;resizable=0;points=[];autosize=1;strokeColor=none;fillColor=none;rounded=0;" vertex="1" parent="1">
          <mxGeometry x="410" y="330" width="50" height="30" as="geometry" />
        </mxCell>
        <mxCell id="Lzb46s-rd1kAjsw1pmxB-28" value="(1,1)" style="text;html=1;align=center;verticalAlign=middle;resizable=0;points=[];autosize=1;strokeColor=none;fillColor=none;rounded=0;" vertex="1" parent="1">
          <mxGeometry x="575" y="328" width="50" height="30" as="geometry" />
        </mxCell>
        <mxCell id="Lzb46s-rd1kAjsw1pmxB-29" value="" style="endArrow=none;html=1;rounded=0;entryX=0.5;entryY=1;entryDx=0;entryDy=0;exitX=1;exitY=0.5;exitDx=0;exitDy=0;" edge="1" parent="1" target="Lzb46s-rd1kAjsw1pmxB-5" source="Lzb46s-rd1kAjsw1pmxB-34">
          <mxGeometry relative="1" as="geometry">
            <mxPoint x="675" y="414" as="sourcePoint" />
            <mxPoint x="640" y="371" as="targetPoint" />
            <Array as="points">
              <mxPoint x="675" y="463" />
            </Array>
          </mxGeometry>
        </mxCell>
        <mxCell id="Lzb46s-rd1kAjsw1pmxB-31" value="(0,n)" style="text;html=1;align=center;verticalAlign=middle;resizable=0;points=[];autosize=1;strokeColor=none;fillColor=none;rounded=0;" vertex="1" parent="1">
          <mxGeometry x="630" y="380" width="50" height="30" as="geometry" />
        </mxCell>
        <mxCell id="Lzb46s-rd1kAjsw1pmxB-32" value="(1,1)" style="text;html=1;align=center;verticalAlign=middle;resizable=0;points=[];autosize=1;strokeColor=none;fillColor=none;rounded=0;" vertex="1" parent="1">
          <mxGeometry x="550" y="520" width="50" height="30" as="geometry" />
        </mxCell>
        <mxCell id="Lzb46s-rd1kAjsw1pmxB-33" value="send message" style="shape=rhombus;perimeter=rhombusPerimeter;whiteSpace=wrap;html=1;align=center;fillColor=none;gradientColor=none;rounded=0;" vertex="1" parent="1">
          <mxGeometry x="460" y="230" width="120" height="65" as="geometry" />
        </mxCell>
        <mxCell id="Lzb46s-rd1kAjsw1pmxB-34" value="joins" style="shape=rhombus;perimeter=rhombusPerimeter;whiteSpace=wrap;html=1;align=center;fillColor=none;gradientColor=none;rounded=0;" vertex="1" parent="1">
          <mxGeometry x="460" y="430" width="120" height="65" as="geometry" />
        </mxCell>
        <mxCell id="Lzb46s-rd1kAjsw1pmxB-36" value="is invited" style="shape=rhombus;perimeter=rhombusPerimeter;whiteSpace=wrap;html=1;align=center;fillColor=none;gradientColor=none;rounded=0;" vertex="1" parent="1">
          <mxGeometry x="460" y="130" width="120" height="65" as="geometry" />
        </mxCell>
        <mxCell id="Lzb46s-rd1kAjsw1pmxB-37" value="has" style="shape=rhombus;perimeter=rhombusPerimeter;whiteSpace=wrap;html=1;align=center;fillColor=none;gradientColor=none;rounded=0;" vertex="1" parent="1">
          <mxGeometry x="640" y="520" width="120" height="65" as="geometry" />
        </mxCell>
        <mxCell id="Lzb46s-rd1kAjsw1pmxB-38" value="" style="endArrow=none;html=1;rounded=0;entryX=0.5;entryY=0;entryDx=0;entryDy=0;exitX=1;exitY=0.5;exitDx=0;exitDy=0;" edge="1" parent="1" source="Lzb46s-rd1kAjsw1pmxB-33" target="Lzb46s-rd1kAjsw1pmxB-5">
          <mxGeometry relative="1" as="geometry">
            <mxPoint x="590" y="473" as="sourcePoint" />
            <mxPoint x="685" y="391" as="targetPoint" />
            <Array as="points">
              <mxPoint x="675" y="263" />
            </Array>
          </mxGeometry>
        </mxCell>
        <mxCell id="Lzb46s-rd1kAjsw1pmxB-39" value="" style="endArrow=none;html=1;rounded=0;entryX=0.5;entryY=0;entryDx=0;entryDy=0;exitX=0;exitY=0.5;exitDx=0;exitDy=0;" edge="1" parent="1" source="Lzb46s-rd1kAjsw1pmxB-33" target="Lzb46s-rd1kAjsw1pmxB-1">
          <mxGeometry relative="1" as="geometry">
            <mxPoint x="590" y="273" as="sourcePoint" />
            <mxPoint x="685" y="351" as="targetPoint" />
            <Array as="points">
              <mxPoint x="365" y="263" />
            </Array>
          </mxGeometry>
        </mxCell>
        <mxCell id="Lzb46s-rd1kAjsw1pmxB-40" value="" style="endArrow=none;html=1;rounded=0;entryX=0;entryY=0.5;entryDx=0;entryDy=0;exitX=0.5;exitY=1;exitDx=0;exitDy=0;" edge="1" parent="1" source="Lzb46s-rd1kAjsw1pmxB-1" target="Lzb46s-rd1kAjsw1pmxB-34">
          <mxGeometry relative="1" as="geometry">
            <mxPoint x="600" y="283" as="sourcePoint" />
            <mxPoint x="695" y="361" as="targetPoint" />
            <Array as="points">
              <mxPoint x="365" y="463" />
            </Array>
          </mxGeometry>
        </mxCell>
        <mxCell id="Lzb46s-rd1kAjsw1pmxB-41" value="" style="endArrow=none;html=1;rounded=0;entryX=0.75;entryY=0;entryDx=0;entryDy=0;exitX=1;exitY=0.5;exitDx=0;exitDy=0;" edge="1" parent="1" source="Lzb46s-rd1kAjsw1pmxB-36" target="Lzb46s-rd1kAjsw1pmxB-5">
          <mxGeometry relative="1" as="geometry">
            <mxPoint x="610" y="293" as="sourcePoint" />
            <mxPoint x="705" y="371" as="targetPoint" />
            <Array as="points">
              <mxPoint x="698" y="163" />
            </Array>
          </mxGeometry>
        </mxCell>
        <mxCell id="Lzb46s-rd1kAjsw1pmxB-42" value="" style="endArrow=none;html=1;rounded=0;entryX=0.25;entryY=0;entryDx=0;entryDy=0;exitX=0;exitY=0.5;exitDx=0;exitDy=0;" edge="1" parent="1" source="Lzb46s-rd1kAjsw1pmxB-36" target="Lzb46s-rd1kAjsw1pmxB-1">
          <mxGeometry relative="1" as="geometry">
            <mxPoint x="590" y="173" as="sourcePoint" />
            <mxPoint x="708" y="351" as="targetPoint" />
            <Array as="points">
              <mxPoint x="343" y="163" />
            </Array>
          </mxGeometry>
        </mxCell>
        <mxCell id="Lzb46s-rd1kAjsw1pmxB-43" value="" style="endArrow=none;html=1;rounded=0;exitX=0.25;exitY=1;exitDx=0;exitDy=0;entryX=0.5;entryY=0;entryDx=0;entryDy=0;" edge="1" parent="1" source="Lzb46s-rd1kAjsw1pmxB-1" target="Lzb46s-rd1kAjsw1pmxB-44">
          <mxGeometry relative="1" as="geometry">
            <mxPoint x="600" y="183" as="sourcePoint" />
            <mxPoint x="350" y="510" as="targetPoint" />
            <Array as="points" />
          </mxGeometry>
        </mxCell>
        <mxCell id="Lzb46s-rd1kAjsw1pmxB-44" value="is asigned" style="shape=rhombus;perimeter=rhombusPerimeter;whiteSpace=wrap;html=1;align=center;fillColor=none;gradientColor=none;rounded=0;" vertex="1" parent="1">
          <mxGeometry x="280" y="520" width="120" height="65" as="geometry" />
        </mxCell>
        <mxCell id="Lzb46s-rd1kAjsw1pmxB-45" value="ROLE" style="rounded=0;whiteSpace=wrap;html=1;" vertex="1" parent="1">
          <mxGeometry x="460" y="532.5" width="90" height="40" as="geometry" />
        </mxCell>
        <mxCell id="Lzb46s-rd1kAjsw1pmxB-46" value="" style="endArrow=none;html=1;rounded=0;exitX=0;exitY=0.5;exitDx=0;exitDy=0;entryX=1;entryY=0.5;entryDx=0;entryDy=0;" edge="1" parent="1" source="Lzb46s-rd1kAjsw1pmxB-45" target="Lzb46s-rd1kAjsw1pmxB-44">
          <mxGeometry relative="1" as="geometry">
            <mxPoint x="353" y="390" as="sourcePoint" />
            <mxPoint x="350" y="530" as="targetPoint" />
            <Array as="points" />
          </mxGeometry>
        </mxCell>
        <mxCell id="Lzb46s-rd1kAjsw1pmxB-47" value="" style="endArrow=none;html=1;rounded=0;exitX=0.75;exitY=1;exitDx=0;exitDy=0;" edge="1" parent="1" source="Lzb46s-rd1kAjsw1pmxB-5" target="Lzb46s-rd1kAjsw1pmxB-37">
          <mxGeometry relative="1" as="geometry">
            <mxPoint x="363" y="400" as="sourcePoint" />
            <mxPoint x="360" y="540" as="targetPoint" />
            <Array as="points" />
          </mxGeometry>
        </mxCell>
        <mxCell id="Lzb46s-rd1kAjsw1pmxB-48" value="" style="endArrow=none;html=1;rounded=0;exitX=0;exitY=0.5;exitDx=0;exitDy=0;entryX=1;entryY=0.5;entryDx=0;entryDy=0;" edge="1" parent="1" source="Lzb46s-rd1kAjsw1pmxB-37" target="Lzb46s-rd1kAjsw1pmxB-45">
          <mxGeometry relative="1" as="geometry">
            <mxPoint x="373" y="410" as="sourcePoint" />
            <mxPoint x="370" y="550" as="targetPoint" />
            <Array as="points" />
          </mxGeometry>
        </mxCell>
        <mxCell id="Lzb46s-rd1kAjsw1pmxB-50" value="" style="ellipse;whiteSpace=wrap;html=1;aspect=fixed;rounded=0;" vertex="1" parent="1">
          <mxGeometry x="280" y="330.5" width="10" height="10" as="geometry" />
        </mxCell>
        <mxCell id="Lzb46s-rd1kAjsw1pmxB-51" value="" style="ellipse;whiteSpace=wrap;html=1;aspect=fixed;rounded=0;" vertex="1" parent="1">
          <mxGeometry x="280" y="404" width="10" height="10" as="geometry" />
        </mxCell>
        <mxCell id="Lzb46s-rd1kAjsw1pmxB-52" value="" style="endArrow=none;html=1;rounded=0;entryX=1;entryY=0.5;entryDx=0;entryDy=0;exitX=0;exitY=0.25;exitDx=0;exitDy=0;" edge="1" parent="1" source="Lzb46s-rd1kAjsw1pmxB-1" target="Lzb46s-rd1kAjsw1pmxB-50">
          <mxGeometry width="50" height="50" relative="1" as="geometry">
            <mxPoint x="330" y="370" as="sourcePoint" />
            <mxPoint x="300" y="371" as="targetPoint" />
            <Array as="points">
              <mxPoint x="310" y="336" />
            </Array>
          </mxGeometry>
        </mxCell>
        <mxCell id="Lzb46s-rd1kAjsw1pmxB-53" value="" style="endArrow=none;html=1;rounded=0;entryX=1.233;entryY=0.267;entryDx=0;entryDy=0;exitX=0;exitY=1;exitDx=0;exitDy=0;entryPerimeter=0;" edge="1" parent="1" source="Lzb46s-rd1kAjsw1pmxB-1" target="Lzb46s-rd1kAjsw1pmxB-51">
          <mxGeometry width="50" height="50" relative="1" as="geometry">
            <mxPoint x="340" y="380" as="sourcePoint" />
            <mxPoint x="310" y="381" as="targetPoint" />
            <Array as="points">
              <mxPoint x="310" y="400" />
            </Array>
          </mxGeometry>
        </mxCell>
        <mxCell id="Lzb46s-rd1kAjsw1pmxB-54" value="email" style="text;html=1;strokeColor=none;fillColor=none;align=center;verticalAlign=middle;whiteSpace=wrap;rounded=0;" vertex="1" parent="1">
          <mxGeometry x="240" y="355" width="40" height="10" as="geometry" />
        </mxCell>
        <mxCell id="Lzb46s-rd1kAjsw1pmxB-56" value="username" style="text;html=1;strokeColor=none;fillColor=none;align=center;verticalAlign=middle;whiteSpace=wrap;rounded=0;" vertex="1" parent="1">
          <mxGeometry x="230" y="404" width="40" height="10" as="geometry" />
        </mxCell>
        <mxCell id="Lzb46s-rd1kAjsw1pmxB-60" value="" style="ellipse;whiteSpace=wrap;html=1;aspect=fixed;rounded=0;" vertex="1" parent="1">
          <mxGeometry x="520" y="200" width="10" height="10" as="geometry" />
        </mxCell>
        <mxCell id="Lzb46s-rd1kAjsw1pmxB-61" value="" style="ellipse;whiteSpace=wrap;html=1;aspect=fixed;rounded=0;" vertex="1" parent="1">
          <mxGeometry x="540" y="220" width="10" height="10" as="geometry" />
        </mxCell>
        <mxCell id="Lzb46s-rd1kAjsw1pmxB-62" value="" style="ellipse;whiteSpace=wrap;html=1;aspect=fixed;rounded=0;" vertex="1" parent="1">
          <mxGeometry x="520" y="90" width="10" height="10" as="geometry" />
        </mxCell>
        <mxCell id="Lzb46s-rd1kAjsw1pmxB-65" value="" style="endArrow=none;html=1;rounded=0;entryX=0.5;entryY=1;entryDx=0;entryDy=0;exitX=0.546;exitY=0.058;exitDx=0;exitDy=0;exitPerimeter=0;" edge="1" parent="1" source="Lzb46s-rd1kAjsw1pmxB-36" target="Lzb46s-rd1kAjsw1pmxB-62">
          <mxGeometry width="50" height="50" relative="1" as="geometry">
            <mxPoint x="480" y="150" as="sourcePoint" />
            <mxPoint x="530" y="100" as="targetPoint" />
          </mxGeometry>
        </mxCell>
        <mxCell id="Lzb46s-rd1kAjsw1pmxB-66" value="" style="endArrow=none;html=1;rounded=0;entryX=0.5;entryY=1;entryDx=0;entryDy=0;exitX=0.546;exitY=0.051;exitDx=0;exitDy=0;exitPerimeter=0;" edge="1" parent="1" source="Lzb46s-rd1kAjsw1pmxB-33" target="Lzb46s-rd1kAjsw1pmxB-60">
          <mxGeometry width="50" height="50" relative="1" as="geometry">
            <mxPoint x="536" y="144" as="sourcePoint" />
            <mxPoint x="535" y="110" as="targetPoint" />
          </mxGeometry>
        </mxCell>
        <mxCell id="Lzb46s-rd1kAjsw1pmxB-67" value="" style="endArrow=none;html=1;rounded=0;entryX=0.5;entryY=1;entryDx=0;entryDy=0;exitX=0.709;exitY=0.206;exitDx=0;exitDy=0;exitPerimeter=0;" edge="1" parent="1" source="Lzb46s-rd1kAjsw1pmxB-33" target="Lzb46s-rd1kAjsw1pmxB-61">
          <mxGeometry width="50" height="50" relative="1" as="geometry">
            <mxPoint x="546" y="154" as="sourcePoint" />
            <mxPoint x="545" y="120" as="targetPoint" />
          </mxGeometry>
        </mxCell>
        <mxCell id="Lzb46s-rd1kAjsw1pmxB-68" value="link" style="text;html=1;strokeColor=none;fillColor=none;align=center;verticalAlign=middle;whiteSpace=wrap;rounded=0;" vertex="1" parent="1">
          <mxGeometry x="525" y="90" width="40" height="10" as="geometry" />
        </mxCell>
        <mxCell id="Lzb46s-rd1kAjsw1pmxB-69" value="content" style="text;html=1;strokeColor=none;fillColor=none;align=center;verticalAlign=middle;whiteSpace=wrap;rounded=0;" vertex="1" parent="1">
          <mxGeometry x="535" y="200" width="40" height="10" as="geometry" />
        </mxCell>
        <mxCell id="Lzb46s-rd1kAjsw1pmxB-70" value="date" style="text;html=1;strokeColor=none;fillColor=none;align=center;verticalAlign=middle;whiteSpace=wrap;rounded=0;" vertex="1" parent="1">
          <mxGeometry x="545" y="220" width="40" height="10" as="geometry" />
        </mxCell>
        <mxCell id="Lzb46s-rd1kAjsw1pmxB-72" value="description" style="text;html=1;strokeColor=none;fillColor=none;align=center;verticalAlign=middle;whiteSpace=wrap;rounded=0;" vertex="1" parent="1">
          <mxGeometry x="525" y="610" width="40" height="10" as="geometry" />
        </mxCell>
        <mxCell id="Lzb46s-rd1kAjsw1pmxB-73" value="name" style="text;html=1;strokeColor=none;fillColor=none;align=center;verticalAlign=middle;whiteSpace=wrap;rounded=0;" vertex="1" parent="1">
          <mxGeometry x="530" y="590" width="40" height="10" as="geometry" />
        </mxCell>
        <mxCell id="Lzb46s-rd1kAjsw1pmxB-74" value="id" style="text;html=1;strokeColor=none;fillColor=none;align=center;verticalAlign=middle;whiteSpace=wrap;rounded=0;" vertex="1" parent="1">
          <mxGeometry x="450" y="590" width="40" height="10" as="geometry" />
        </mxCell>
        <mxCell id="Lzb46s-rd1kAjsw1pmxB-75" value="" style="ellipse;whiteSpace=wrap;html=1;aspect=fixed;rounded=0;" vertex="1" parent="1">
          <mxGeometry x="500" y="610" width="10" height="10" as="geometry" />
        </mxCell>
        <mxCell id="Lzb46s-rd1kAjsw1pmxB-76" value="" style="ellipse;whiteSpace=wrap;html=1;aspect=fixed;rounded=0;" vertex="1" parent="1">
          <mxGeometry x="478" y="590" width="10" height="10" as="geometry" />
        </mxCell>
        <mxCell id="Lzb46s-rd1kAjsw1pmxB-77" value="" style="ellipse;whiteSpace=wrap;html=1;aspect=fixed;rounded=0;" vertex="1" parent="1">
          <mxGeometry x="523" y="590" width="10" height="10" as="geometry" />
        </mxCell>
        <mxCell id="Lzb46s-rd1kAjsw1pmxB-80" value="" style="endArrow=none;html=1;rounded=0;entryX=0.25;entryY=1;entryDx=0;entryDy=0;exitX=0.5;exitY=0;exitDx=0;exitDy=0;" edge="1" parent="1" source="Lzb46s-rd1kAjsw1pmxB-76">
          <mxGeometry width="50" height="50" relative="1" as="geometry">
            <mxPoint x="485" y="590" as="sourcePoint" />
            <mxPoint x="483" y="573" as="targetPoint" />
          </mxGeometry>
        </mxCell>
        <mxCell id="Lzb46s-rd1kAjsw1pmxB-81" value="" style="endArrow=none;html=1;rounded=0;entryX=0.5;entryY=1;entryDx=0;entryDy=0;exitX=0.5;exitY=0;exitDx=0;exitDy=0;" edge="1" parent="1" source="Lzb46s-rd1kAjsw1pmxB-75" target="Lzb46s-rd1kAjsw1pmxB-45">
          <mxGeometry width="50" height="50" relative="1" as="geometry">
            <mxPoint x="495" y="600" as="sourcePoint" />
            <mxPoint x="493" y="583" as="targetPoint" />
          </mxGeometry>
        </mxCell>
        <mxCell id="Lzb46s-rd1kAjsw1pmxB-82" value="" style="endArrow=none;html=1;rounded=0;entryX=0.75;entryY=1;entryDx=0;entryDy=0;exitX=0.5;exitY=0;exitDx=0;exitDy=0;" edge="1" parent="1" source="Lzb46s-rd1kAjsw1pmxB-77" target="Lzb46s-rd1kAjsw1pmxB-45">
          <mxGeometry width="50" height="50" relative="1" as="geometry">
            <mxPoint x="505" y="610" as="sourcePoint" />
            <mxPoint x="503" y="593" as="targetPoint" />
          </mxGeometry>
        </mxCell>
        <mxCell id="Lzb46s-rd1kAjsw1pmxB-85" value="(0,n)" style="text;html=1;align=center;verticalAlign=middle;resizable=0;points=[];autosize=1;strokeColor=none;fillColor=none;rounded=0;" vertex="1" parent="1">
          <mxGeometry x="360" y="300" width="50" height="30" as="geometry" />
        </mxCell>
        <mxCell id="Lzb46s-rd1kAjsw1pmxB-86" value="(0,n)" style="text;html=1;align=center;verticalAlign=middle;resizable=0;points=[];autosize=1;strokeColor=none;fillColor=none;rounded=0;" vertex="1" parent="1">
          <mxGeometry x="360" y="380" width="50" height="30" as="geometry" />
        </mxCell>
        <mxCell id="Lzb46s-rd1kAjsw1pmxB-87" value="(0,n)" style="text;html=1;align=center;verticalAlign=middle;resizable=0;points=[];autosize=1;strokeColor=none;fillColor=none;rounded=0;" vertex="1" parent="1">
          <mxGeometry x="630" y="300" width="50" height="30" as="geometry" />
        </mxCell>
        <mxCell id="Lzb46s-rd1kAjsw1pmxB-88" value="(0,n)" style="text;html=1;align=center;verticalAlign=middle;resizable=0;points=[];autosize=1;strokeColor=none;fillColor=none;rounded=0;" vertex="1" parent="1">
          <mxGeometry x="700" y="440" width="50" height="30" as="geometry" />
        </mxCell>
        <mxCell id="Lzb46s-rd1kAjsw1pmxB-89" value="(0,n)" style="text;html=1;align=center;verticalAlign=middle;resizable=0;points=[];autosize=1;strokeColor=none;fillColor=none;rounded=0;" vertex="1" parent="1">
          <mxGeometry x="650" y="160" width="50" height="30" as="geometry" />
        </mxCell>
        <mxCell id="Lzb46s-rd1kAjsw1pmxB-90" value="(0,n)" style="text;html=1;align=center;verticalAlign=middle;resizable=0;points=[];autosize=1;strokeColor=none;fillColor=none;rounded=0;" vertex="1" parent="1">
          <mxGeometry x="340" y="160" width="50" height="30" as="geometry" />
        </mxCell>
        <mxCell id="Lzb46s-rd1kAjsw1pmxB-91" value="(0,n)" style="text;html=1;align=center;verticalAlign=middle;resizable=0;points=[];autosize=1;strokeColor=none;fillColor=none;rounded=0;" vertex="1" parent="1">
          <mxGeometry x="410" y="520" width="50" height="30" as="geometry" />
        </mxCell>
        <mxCell id="Lzb46s-rd1kAjsw1pmxB-92" value="(0,n)" style="text;html=1;align=center;verticalAlign=middle;resizable=0;points=[];autosize=1;strokeColor=none;fillColor=none;rounded=0;" vertex="1" parent="1">
          <mxGeometry x="280" y="450" width="50" height="30" as="geometry" />
        </mxCell>
      </root>
    </mxGraphModel>
  </diagram>
</mxfile>
